<?xml version="1.0" standalone="no"?>
<!DOCTYPE svg PUBLIC "-//W3C//DTD SVG 20010904//EN"
 "http://www.w3.org/TR/2001/REC-SVG-20010904/DTD/svg10.dtd">
<svg version="1.0" xmlns="http://www.w3.org/2000/svg"
 width="300.000000pt" height="300.000000pt" viewBox="0 0 300.000000 300.000000"
 preserveAspectRatio="xMidYMid meet">
<metadata>
Created by potrace 1.11, written by Peter Selinger 2001-2013
</metadata>
<g transform="translate(0.000000,300.000000) scale(0.100000,-0.100000)"
fill="#000000" stroke="none">
<path d="M0 1500 l0 -1500 1500 0 1500 0 0 1500 0 1500 -1500 0 -1500 0 0
-1500z m2825 1350 c-3 -5 1 -10 10 -10 9 0 13 5 10 10 -3 6 -1 10 4 10 15 0
15 -286 0 -296 -8 -4 -8 -9 0 -17 6 -6 11 -20 11 -32 0 -16 -2 -17 -10 -5 -8
12 -10 11 -10 -7 0 -12 -5 -25 -10 -28 -7 -4 -8 -26 -4 -57 5 -36 4 -49 -4
-44 -6 3 -13 2 -16 -3 -4 -5 -2 -12 4 -16 6 -4 5 -18 -4 -40 -19 -45 -11 -78
18 -69 20 6 20 6 4 -12 -9 -11 -21 -32 -27 -47 -6 -16 -15 -25 -21 -22 -5 3
-10 2 -10 -4 0 -5 -9 -13 -20 -16 -11 -3 -20 -11 -20 -16 0 -6 4 -7 10 -4 13
8 13 -31 -1 -56 -15 -29 -4 -56 16 -39 13 11 14 10 9 -4 -7 -19 -60 -49 -73
-42 -5 3 -15 -2 -22 -11 -13 -15 -11 -16 12 -10 20 5 29 3 33 -9 5 -14 4 -15
-9 -4 -8 7 -15 8 -15 3 0 -5 -13 -17 -30 -26 -47 -28 -40 -48 15 -40 25 3 45
3 45 0 0 -3 -11 -18 -25 -33 -18 -20 -23 -33 -19 -51 4 -16 2 -28 -7 -34 -23
-14 -29 -11 -29 16 0 16 -6 25 -16 25 -8 0 -13 -4 -9 -9 3 -5 1 -12 -5 -16 -5
-3 -10 -15 -10 -26 0 -10 -5 -19 -12 -19 -6 0 -8 3 -5 6 3 4 2 15 -4 26 -16
30 -40 4 -34 -35 3 -17 8 -34 10 -38 3 -4 -4 -5 -15 -2 -29 8 -47 -12 -48 -53
-1 -20 -9 -46 -19 -56 -10 -11 -16 -31 -15 -44 4 -25 -8 -29 -65 -24 -29 2
-29 -14 -1 -34 16 -11 18 -18 11 -28 -11 -13 -10 -59 2 -78 4 -7 -2 -9 -19 -4
-22 5 -26 3 -26 -15 0 -13 -5 -18 -13 -15 -14 5 -49 -27 -46 -42 4 -23 -3 -32
-28 -40 -16 -4 -34 -6 -40 -5 -7 1 -13 -6 -13 -15 0 -13 -3 -14 -14 -5 -23 19
-66 3 -66 -25 0 -16 -4 -22 -14 -18 -8 3 -13 18 -12 37 1 27 -2 31 -19 29 -10
-2 -30 -12 -43 -23 -18 -14 -29 -16 -42 -9 -11 6 -21 6 -24 1 -8 -13 -56 -20
-56 -8 0 6 -3 8 -6 4 -9 -9 6 -48 16 -42 14 9 90 -7 84 -17 -4 -5 -15 -8 -25
-5 -15 4 -19 0 -19 -20 0 -25 0 -26 -20 -8 -11 10 -20 15 -20 12 0 -4 1 -8 2
-9 2 -2 -6 -16 -18 -33 -11 -16 -21 -47 -23 -69 -1 -21 -8 -44 -15 -52 -19
-19 -29 -4 -11 16 13 14 13 19 1 35 -16 22 -51 13 -42 -11 5 -13 2 -14 -11 -9
-60 25 -89 32 -99 24 -6 -5 -19 -7 -28 -3 -10 4 -31 -5 -53 -22 -32 -24 -78
-38 -155 -46 -9 -1 -16 -6 -15 -11 1 -5 -3 -11 -10 -14 -6 -2 -13 3 -15 12 -3
14 -6 13 -26 -5 -12 -11 -27 -18 -32 -15 -15 9 -12 25 5 25 8 0 15 4 15 9 0
13 -40 21 -59 12 -23 -11 -88 -6 -105 8 -12 10 -15 8 -18 -11 -2 -16 -9 -22
-21 -20 -11 2 -24 -3 -30 -12 -15 -19 -67 -32 -67 -17 0 17 -47 13 -54 -4 -3
-9 -11 -15 -18 -14 -47 6 -75 -2 -86 -25 l-11 -25 -53 19 c-52 18 -53 18 -56
-1 -2 -10 -9 -19 -17 -19 -7 0 -15 -5 -17 -11 -3 -8 -13 -7 -33 3 -17 8 -37
13 -47 11 -9 -2 -19 1 -23 7 -5 8 -11 4 -19 -12 -9 -16 -9 -25 -2 -30 8 -5 7
-11 -1 -19 -9 -9 -13 -6 -19 15 -4 17 -11 25 -20 22 -7 -3 -16 -1 -19 4 -9 15
-25 12 -25 -5 0 -8 -9 -15 -20 -15 -11 0 -20 5 -20 10 0 7 -7 7 -21 0 -16 -9
-23 -8 -32 3 -7 9 -21 17 -32 19 -14 2 -20 11 -20 31 -1 16 2 30 7 33 9 6 -1
34 -14 34 -5 0 -7 -4 -4 -9 3 -4 -6 -13 -20 -20 -20 -9 -30 -9 -41 0 -10 9
-17 9 -25 1 -9 -9 -17 -7 -35 10 -18 17 -25 19 -37 9 -13 -11 -14 -9 -10 14 4
25 4 25 -19 10 -23 -15 -26 -14 -65 17 l-41 33 0 918 -1 917 1346 0 c894 0
1343 -3 1339 -10z m-385 -1450 c0 -11 -4 -20 -9 -20 -7 0 -8 17 -2 38 4 10 11
-2 11 -18z m-53 -115 c-5 -16 -49 -18 -58 -3 -13 20 -11 28 6 22 8 -4 15 -1
15 5 0 8 6 7 20 -1 11 -7 19 -17 17 -23z m-2240 -347 c-3 -7 -5 -2 -5 12 0 14
2 19 5 13 2 -7 2 -19 0 -25z m383 -122 c0 -3 -4 -8 -10 -11 -5 -3 -10 -1 -10
4 0 6 5 11 10 11 6 0 10 -2 10 -4z m-297 -133 c61 37 61 37 70 15 8 -22 -7
-48 -27 -48 -18 -1 -64 -40 -45 -40 8 0 19 4 25 10 10 10 64 21 99 21 11 -1
34 -1 52 -1 20 0 33 -5 35 -14 5 -23 51 3 58 33 l5 23 12 -23 c6 -13 16 -55
22 -94 6 -38 15 -71 21 -73 22 -8 8 -24 -17 -19 -15 3 -33 3 -40 0 -17 -7 -17
-41 0 -39 18 1 87 -27 87 -36 0 -5 11 -21 25 -36 24 -25 27 -26 39 -9 14 18
32 24 20 6 -3 -6 13 -31 37 -55 38 -39 41 -45 27 -56 -20 -17 -29 -55 -14 -66
18 -13 63 -14 86 -2 18 10 22 9 27 -9 4 -15 15 -21 47 -24 22 -2 -136 -4 -351
-5 l-393 -2 0 296 0 295 37 -30 c31 -25 39 -28 56 -18z m1632 34 c-10 -8 -15
-19 -11 -25 10 -17 -13 -25 -30 -11 -14 11 -13 15 8 31 13 9 29 18 37 18 11 0
10 -4 -4 -13z m-1465 -22 c0 -9 -7 -18 -16 -22 -18 -7 -39 11 -30 26 11 17 46
13 46 -4z m1524 -63 c-24 -25 -45 -44 -46 -41 -13 20 -28 50 -28 53 0 2 8 2
19 -1 10 -3 22 0 25 6 4 5 13 8 21 4 10 -3 15 1 15 15 0 22 21 35 31 19 4 -5
-13 -30 -37 -55z m-980 29 c7 -10 -18 -34 -27 -25 -7 8 3 34 13 34 5 0 11 -4
14 -9z m-244 -15 c0 -10 -10 -14 -30 -14 -31 1 -40 12 -17 21 24 10 47 7 47
-7z m163 7 c4 -3 -1 -15 -10 -26 -10 -10 -17 -21 -15 -23 9 -15 -2 -25 -25
-22 -20 2 -29 9 -31 26 -3 18 1 22 22 22 16 0 26 6 26 15 0 15 21 21 33 8z
m193 -1 c19 -12 34 -50 28 -66 -3 -9 -1 -16 4 -16 6 0 13 -8 15 -17 3 -13 5
-10 6 7 1 22 3 23 12 7 6 -10 8 -25 5 -34 -6 -14 -9 -14 -29 0 -16 10 -28 12
-40 5 -31 -17 -187 24 -187 50 0 5 6 17 14 27 19 27 48 13 40 -19 -5 -21 -2
-26 18 -30 12 -3 32 -4 43 -4 17 1 16 4 -8 21 l-27 21 32 28 c32 28 53 34 74
20z m-461 -12 c3 -5 -1 -10 -10 -10 -9 0 -13 5 -10 10 3 6 8 10 10 10 2 0 7
-4 10 -10z m530 0 c3 -5 -1 -10 -9 -10 -9 0 -16 5 -16 10 0 6 4 10 9 10 6 0
13 -4 16 -10z m-375 -29 c0 -6 -4 -13 -10 -16 -5 -3 -10 1 -10 9 0 9 5 16 10
16 6 0 10 -4 10 -9z m20 -31 c0 -5 -2 -10 -4 -10 -3 0 -8 5 -11 10 -3 6 -1 10
4 10 6 0 11 -4 11 -10z m1096 -65 c-8 -8 -17 -15 -20 -15 -3 0 -6 7 -6 15 0 9
9 15 21 15 18 0 19 -2 5 -15z m59 5 c3 -5 -1 -10 -9 -10 -9 0 -16 5 -16 10 0
6 4 10 9 10 6 0 13 -4 16 -10z m-1305 -30 c0 -5 -4 -10 -10 -10 -5 0 -10 5
-10 10 0 6 5 10 10 10 6 0 10 -4 10 -10z m102 -22 c-9 -9 -15 -9 -24 0 -9 9
-7 12 12 12 19 0 21 -3 12 -12z m328 -7 c0 -6 -4 -13 -10 -16 -5 -3 -10 1 -10
9 0 9 5 16 10 16 6 0 10 -4 10 -9z m-270 -56 c0 -8 -2 -15 -4 -15 -2 0 -6 7
-10 15 -3 8 -1 15 4 15 6 0 10 -7 10 -15z m-37 -2 c-7 -2 -19 -2 -25 0 -7 3
-2 5 12 5 14 0 19 -2 13 -5z"/>
<path d="M2801 2618 c-22 -35 -20 -48 4 -28 24 20 37 48 25 55 -5 3 -19 -9
-29 -27z"/>
<path d="M2160 2012 c0 -5 -10 -18 -21 -31 -14 -15 -18 -26 -12 -32 7 -7 15
-2 25 13 21 33 29 58 18 58 -6 0 -10 -4 -10 -8z"/>
<path d="M2055 1979 c-11 -17 1 -21 15 -4 8 9 8 15 2 15 -6 0 -14 -5 -17 -11z"/>
<path d="M1580 1962 c0 -10 -12 -22 -28 -28 -25 -9 -31 -8 -41 7 -14 23 -31
25 -31 4 0 -11 -12 -15 -45 -15 -25 0 -45 -4 -45 -9 0 -15 -75 -32 -145 -32
-47 0 -145 -22 -145 -33 0 -5 -6 -2 -13 8 -11 14 -21 17 -45 12 -18 -3 -46 -9
-63 -12 -18 -4 -34 -15 -39 -28 -8 -21 -8 -21 -16 -1 -11 27 -44 62 -44 47 0
-10 -5 -10 -21 -2 -25 14 -49 6 -49 -15 0 -23 -36 -2 -43 25 -3 11 -2 18 1 16
4 -2 13 2 20 10 7 8 11 14 10 15 -2 1 -22 3 -46 5 -44 4 -44 4 -37 -26 4 -16
1 -39 -6 -51 -9 -17 -9 -24 -1 -27 7 -2 16 -21 22 -43 7 -26 19 -44 36 -51 15
-7 24 -20 24 -33 0 -26 44 -59 66 -51 17 6 84 -19 84 -31 0 -4 23 -19 52 -32
43 -20 55 -22 71 -11 13 8 22 8 26 1 8 -13 34 -9 55 8 17 14 36 7 36 -14 0 -8
8 -14 18 -14 53 1 131 -16 150 -32 19 -15 21 -22 13 -38 -8 -15 -7 -23 5 -35
8 -9 20 -16 26 -16 6 0 16 -7 22 -15 6 -8 25 -16 41 -17 17 -2 38 -12 47 -23
17 -19 19 -19 32 -2 7 9 18 17 23 17 17 0 64 -41 58 -51 -4 -5 -1 -9 5 -9 7 0
9 7 6 16 -10 26 5 37 21 15 15 -22 43 -28 43 -10 0 8 4 9 13 0 8 -6 17 -8 20
-5 3 3 12 2 19 -2 22 -14 40 -13 55 2 8 8 10 14 5 14 -14 0 -9 27 9 48 8 9 20
29 26 45 7 15 16 27 20 26 23 -4 33 4 33 25 0 13 6 26 13 29 9 3 10 13 0 48
-9 36 -9 47 3 60 8 8 14 21 14 27 0 6 16 24 35 39 19 15 35 34 35 41 0 6 4 12
9 12 22 0 111 64 111 80 0 10 10 20 22 23 22 6 21 7 -7 32 -22 18 -38 24 -60
20 -16 -2 -55 -7 -87 -10 -38 -4 -58 -11 -62 -22 -6 -14 -8 -14 -26 2 -10 9
-23 14 -28 11 -5 -3 -28 1 -53 8 -50 14 -79 11 -79 -9 0 -16 -58 -50 -68 -41
-3 3 1 17 8 31 7 14 11 28 8 31 -8 7 -49 -15 -66 -35 -11 -14 -13 -8 -9 37 3
39 1 52 -9 52 -8 0 -14 -8 -14 -18z m450 -92 c0 -5 -5 -10 -11 -10 -5 0 -7 5
-4 10 3 6 8 10 11 10 2 0 4 -4 4 -10z m-690 -280 c0 -5 -4 -10 -10 -10 -5 0
-10 5 -10 10 0 6 5 10 10 10 6 0 10 -4 10 -10z m520 -60 c0 -5 -2 -10 -4 -10
-3 0 -8 5 -11 10 -3 6 -1 10 4 10 6 0 11 -4 11 -10z"/>
<path d="M1670 1970 c0 -5 5 -10 10 -10 6 0 10 5 10 10 0 6 -4 10 -10 10 -5 0
-10 -4 -10 -10z"/>
<path d="M2175 1970 c-3 -5 -1 -10 4 -10 6 0 11 5 11 10 0 6 -2 10 -4 10 -3 0
-8 -4 -11 -10z"/>
<path d="M1345 1940 c-3 -5 -1 -10 4 -10 6 0 11 5 11 10 0 6 -2 10 -4 10 -3 0
-8 -4 -11 -10z"/>
<path d="M2605 1920 c3 -5 8 -10 11 -10 2 0 4 5 4 10 0 6 -5 10 -11 10 -5 0
-7 -4 -4 -10z"/>
<path d="M2505 1760 c-3 -5 -1 -10 4 -10 6 0 11 5 11 10 0 6 -2 10 -4 10 -3 0
-8 -4 -11 -10z"/>
<path d="M2407 1678 c-7 -4 5 -8 25 -8 20 0 39 4 42 9 6 10 -51 9 -67 -1z"/>
<path d="M2277 1590 c-4 -16 -1 -20 11 -18 19 4 23 29 6 35 -6 2 -14 -6 -17
-17z"/>
<path d="M2383 1583 c-7 -3 -13 -8 -13 -12 0 -10 39 -11 45 -1 6 10 -16 19
-32 13z"/>
<path d="M2305 1510 c3 -5 8 -10 11 -10 2 0 4 5 4 10 0 6 -5 10 -11 10 -5 0
-7 -4 -4 -10z"/>
<path d="M2165 1450 c-4 -6 5 -10 19 -10 14 0 26 5 26 10 0 6 -9 10 -19 10
-11 0 -23 -4 -26 -10z"/>
<path d="M2097 1373 c-12 -11 -8 -23 8 -23 8 0 15 7 15 15 0 16 -12 20 -23 8z"/>
<path d="M2010 1330 c0 -35 6 -37 40 -10 28 21 27 24 -12 34 -26 6 -28 4 -28
-24z"/>
<path d="M1810 1341 c0 -17 30 -25 43 -12 8 8 8 11 0 11 -6 0 -18 3 -27 6 -9
3 -16 1 -16 -5z"/>
<path d="M2148 1313 c-24 -6 -32 -33 -9 -33 10 0 22 7 25 16 8 20 6 21 -16 17z"/>
<path d="M1871 1096 c-7 -8 -8 -17 -3 -20 6 -3 13 1 16 10 9 23 2 28 -13 10z"/>
<path d="M210 1020 c0 -5 5 -10 11 -10 5 0 7 5 4 10 -3 6 -8 10 -11 10 -2 0
-4 -4 -4 -10z"/>
<path d="M285 1010 c3 -5 11 -10 16 -10 6 0 7 5 4 10 -3 6 -11 10 -16 10 -6 0
-7 -4 -4 -10z"/>
<path d="M470 530 c6 -11 15 -20 20 -20 16 0 11 27 -6 34 -24 9 -26 8 -14 -14z"/>
<path d="M1035 590 c-3 -5 -1 -10 4 -10 6 0 11 5 11 10 0 6 -2 10 -4 10 -3 0
-8 -4 -11 -10z"/>
</g>
</svg>
